<?xml version="1.0" encoding="utf-8"?>
<!-- Generator: Adobe Illustrator 26.0.1, SVG Export Plug-In . SVG Version: 6.00 Build 0)  -->
<svg version="1.1" id="Capa_1" xmlns="http://www.w3.org/2000/svg" xmlns:xlink="http://www.w3.org/1999/xlink" x="0px" y="0px"
	 viewBox="0 0 901.7 125.4" style="enable-background:new 0 0 901.7 125.4;" xml:space="preserve">
<style type="text/css">
	.st0{fill:none;stroke:url(#SVGID_1_);stroke-width:0.5;stroke-miterlimit:10;}
</style>
<linearGradient id="SVGID_1_" gradientUnits="userSpaceOnUse" x1="450.8675" y1="0" x2="450.8675" y2="125.3879">
	<stop  offset="0" style="stop-color:#193E72"/>
	<stop  offset="0.1819" style="stop-color:#17417C"/>
	<stop  offset="0.3743" style="stop-color:#2F519F"/>
	<stop  offset="0.6246" style="stop-color:#3499D0"/>
	<stop  offset="0.9177" style="stop-color:#6FB6E3"/>
</linearGradient>
<path class="st0" d="M0.1,114.9c96-28.4,50.6-15.2,143.2-15.2c92.6,0,92-99.5,184.6-99.5c92.6,0,94.1,124.9,186.7,124.9
	c92.6,0,91.4-62.4,184-62.4s110.7-26.3,203.2-26.3 M901.7,41.9c-92.6,0-107.8,17.8-200.3,17.8c-92.6,0-92.8,64.9-185,61.2
	C422.7,117.3,415.9,3.5,328.8,5c-92.3,1.6-90.5,96.4-183,96.4c-92.6,0-50-19.4-145.7,7 M901.7,47.4c-92.6,0-104.9,9.4-197.4,9.4
	c-92.6,0-94.1,67.3-186,60C423.5,109.3,411.5,7,329.8,9.8c-92.1,3.2-89,93.3-181.5,93.3c-92.6,0-52.7-25.7-148.3-1.1 M901.7,52.9
	c-92.6,0-102,0.9-194.5,0.9c-92.6,0-95.5,69.6-187,58.8c-96-11.3-113.2-102.1-189.4-98.1c-91.9,4.9-87.4,90.2-180,90.2
	c-92.6,0-55.5-31.9-150.8-9.2 M901.7,58.4c-92.6,0-99-7.5-191.6-7.5c-92.6,0-96.9,71.8-188,57.6C425,93.3,402.6,14.3,331.9,19.3
	c-91.7,6.5-85.9,87.2-178.5,87.2c-92.6,0-58.3-38.1-153.3-17.3 M901.7,64c-92.6,0-96.1-16-188.7-16c-92.6,0-98.3,74-189,56.3
	c-98.3-19.2-125.9-86.1-191.2-80.2c-91.5,8.3-84.4,84.1-176.9,84.1c-92.6,0-61-44.3-155.9-25.4 M901.7,69.5
	c-92.6,0-93.2-24.4-185.8-24.4c-92.6,0-99.7,76.2-190,55.1C426.5,77,393.7,22.3,333.9,28.9c-91.3,10-82.8,81-175.4,81
	c-92.6,0-63.8-50.6-158.4-33.5 M901.7,75c-92.6,0-90.3-32.9-182.9-32.9c-92.6,0-101,78.3-191,53.9c-100.7-27.3-138.7-69.4-193-62.3
	c-91.2,11.9-81.3,77.9-173.9,77.9c-92.6,0-66.6-56.8-160.9-41.7 M901.7,80.5c-92.6,0-87.4-41.3-180-41.3
	c-92.6,0-102.4,80.3-192,52.7C428,60.5,384.8,31,335.9,38.4c-91,13.9-79.8,74.8-172.3,74.8c-92.6,0-69.3-63-163.5-49.8 M901.7,86
	c-92.6,0-84.5-49.8-177.1-49.8c-92.6,0-103.8,82.3-193,51.5c-103-35.6-151.4-52.1-194.8-44.5C246,59.2,258.7,115,166.1,115
	C73.5,115,94,45.7,0.1,57.1 M901.7,91.5c-92.6,0-81.6-58.2-174.2-58.2c-92.6,0-105.1,84.2-194,50.2C429.5,43.7,375.9,40.3,337.9,48
	c-90.7,18.3-76.7,68.7-169.3,68.7c-92.6,0-74.9-75.5-168.6-66 M901.7,97c-92.6,0-78.7-66.7-171.3-66.7c-92.6,0-106.5,86.1-195,49
	C430.3,35.3,371.4,45.3,338.9,52.8c-90.6,20.9-75.2,65.6-167.8,65.6c-92.6,0-77.6-81.7-171.1-74.1 M901.7,102.5
	c-92.6,0-75.8-75.1-168.3-75.1c-92.6,0-107.8,87.9-196,47.8C431.1,26.7,367.9,49.3,340.9,56.7c-84.9,23.2-74.6,63.3-167.2,63.3
	c-92.6,0-80.4-87.9-173.6-82.2 M901.7,108c-92.6,0-72.9-83.6-165.4-83.6c-92.6,0-109.2,89.8-197,46.6
	c-107.4-52.8-176.8-16.3-198.3-9.2c-62.2,20.7-72.5,60.1-164.8,59.9C83.7,121.6,93.1,27.6,0.1,31.4"/>
</svg>
